<svg width="41" height="37" viewBox="0 0 41 37" fill="none" xmlns="http://www.w3.org/2000/svg">
<mask id="mask0_530_4241" style="mask-type:alpha" maskUnits="userSpaceOnUse" x="2" y="0" width="36" height="36">
<path d="M18.5871 1.17519C19.481 0.714194 20.5428 0.714194 21.4367 1.17519L35.6589 8.50944C36.693 9.04272 37.3427 10.1088 37.3427 11.2723V25.3579C37.3427 26.5215 36.693 27.5876 35.6589 28.1208L21.4367 35.4551C20.5428 35.9161 19.481 35.9161 18.5871 35.4551L4.36493 28.1208C3.33083 27.5876 2.68109 26.5215 2.68109 25.3579V11.2723C2.68109 10.1088 3.33082 9.04272 4.36493 8.50944L18.5871 1.17519Z" fill="#D9D9D9"/>
</mask>
<g mask="url(#mask0_530_4241)">
<path d="M20.6941 0.883498C20.143 0.604904 19.4922 0.604905 18.9411 0.883499L2.33145 9.27957L19.8176 18.1187L37.3037 9.27957L20.6941 0.883498Z" fill="#F9A682"/>
<path d="M2.33145 9.27957V26.099C2.33145 26.8569 2.77209 27.5455 3.46017 27.8631L19.8176 35.4127V18.1187L2.33145 9.27957Z" fill="#BAE3E2"/>
<path d="M19.8176 18.1187V35.4127L36.175 27.8631C36.8631 27.5455 37.3037 26.8569 37.3037 26.099V9.27957L19.8176 18.1187Z" fill="#30B3AB"/>
</g>
</svg>
