<svg width="19" height="19" viewBox="0 0 19 19" fill="none" xmlns="http://www.w3.org/2000/svg">
<path d="M17.7678 16.576L14.427 13.2622C15.7238 11.6452 16.3518 9.59286 16.1819 7.52709C16.012 5.46133 15.057 3.53918 13.5134 2.15587C11.9698 0.772567 9.95486 0.0332533 7.88289 0.0899496C5.81093 0.146646 3.83943 0.995043 2.37378 2.46069C0.908129 3.92634 0.059732 5.89784 0.00303558 7.9698C-0.0536608 10.0418 0.685653 12.0567 2.06896 13.6003C3.45226 15.1439 5.37442 16.0989 7.44018 16.2688C9.50595 16.4387 11.5583 15.8107 13.1752 14.5139L16.4891 17.8277C16.5728 17.9121 16.6724 17.9791 16.7822 18.0249C16.8919 18.0706 17.0096 18.0941 17.1285 18.0941C17.2474 18.0941 17.3651 18.0706 17.4748 18.0249C17.5845 17.9791 17.6841 17.9121 17.7678 17.8277C17.9301 17.6598 18.0209 17.4354 18.0209 17.2019C18.0209 16.9683 17.9301 16.7439 17.7678 16.576ZM8.1234 14.5139C6.87667 14.5139 5.65794 14.1442 4.62133 13.4515C3.58471 12.7589 2.77677 11.7744 2.29967 10.6226C1.82257 9.47075 1.69773 8.20332 1.94096 6.98055C2.18418 5.75778 2.78454 4.63459 3.66611 3.75302C4.54768 2.87145 5.67086 2.2711 6.89363 2.02787C8.1164 1.78465 9.38384 1.90948 10.5357 2.38658C11.6875 2.86368 12.672 3.67163 13.3646 4.70824C14.0573 5.74486 14.427 6.96358 14.427 8.21031C14.427 9.88212 13.7628 11.4855 12.5807 12.6676C11.3985 13.8497 9.7952 14.5139 8.1234 14.5139Z" fill="black"/>
</svg>
