<svg width="4" height="15" viewBox="0 0 4 15" fill="none" xmlns="http://www.w3.org/2000/svg">
<path d="M2 5.7059C1.73736 5.7059 1.47728 5.75231 1.23463 5.84247C0.991982 5.93263 0.771504 6.06478 0.585787 6.23138C0.40007 6.39798 0.25275 6.59576 0.152241 6.81343C0.0517316 7.0311 2.06817e-07 7.2644 2.06817e-07 7.5C2.06817e-07 7.7356 0.0517316 7.9689 0.152241 8.18657C0.25275 8.40424 0.40007 8.60202 0.585787 8.76862C0.771504 8.93522 0.991982 9.06737 1.23463 9.15753C1.47728 9.24769 1.73736 9.2941 2 9.2941C2.53043 9.29399 3.03909 9.10487 3.41408 8.76833C3.78907 8.4318 3.99967 7.97542 3.99955 7.49959C3.99943 7.02377 3.7886 6.56748 3.41344 6.23109C3.03828 5.89471 2.53043 5.70579 2 5.7059ZM2 3.58657C2.26253 3.58646 2.52246 3.53997 2.76495 3.44975C3.00745 3.35953 3.22776 3.22735 3.41331 3.06075C3.59885 2.89415 3.74601 2.6964 3.84636 2.47879C3.94671 2.26118 3.9983 2.02797 3.99818 1.79247C3.99806 1.55697 3.94624 1.3238 3.84566 1.10627C3.74509 0.88874 3.59774 0.69111 3.41202 0.524664C3.2263 0.358218 3.00586 0.226216 2.76327 0.136194C2.52068 0.0461718 2.26071 -0.000106859 1.99818 1.85274e-07C1.46799 0.000216378 0.95961 0.189358 0.584878 0.525817C0.210146 0.862276 -0.00024079 1.31849 2.06817e-07 1.7941C0.000241203 2.26971 0.21109 2.72575 0.586163 3.0619C0.961236 3.39806 1.46981 3.58678 2 3.58657ZM2 11.4118C1.46957 11.4118 0.96086 11.6008 0.585787 11.9373C0.210714 12.2737 2.06817e-07 12.7301 2.06817e-07 13.2059C2.06817e-07 13.6817 0.210714 14.1381 0.585787 14.4745C0.96086 14.811 1.46957 15 2 15C2.53043 15 3.03914 14.811 3.41421 14.4745C3.78929 14.1381 4 13.6817 4 13.2059C4 12.7301 3.78929 12.2737 3.41421 11.9373C3.03914 11.6008 2.53043 11.4118 2 11.4118Z" fill="#33363F"/>
</svg>
