<svg width="24" height="24" viewBox="0 0 24 24" fill="none" xmlns="http://www.w3.org/2000/svg">
<path fill-rule="evenodd" clip-rule="evenodd" d="M22.3119 10.0113C22.5199 11.0961 21.6046 12 20.5 12H14C12.8954 12 12 11.1046 12 10V3.50003C12 2.39546 12.9039 1.48014 13.9887 1.68811C18.1928 2.49408 21.506 5.80721 22.3119 10.0113ZM20.8388 10.2937C20.1484 6.69293 17.3071 3.8516 13.7063 3.16129C13.6795 3.15614 13.6693 3.15937 13.6663 3.16034C13.6604 3.16219 13.6419 3.16936 13.6166 3.19328C13.561 3.24564 13.5 3.35335 13.5 3.50003V10C13.5 10.2762 13.7239 10.5 14 10.5H20.5C20.6467 10.5 20.7544 10.439 20.8068 10.3835C20.8307 10.3581 20.8377 10.3401 20.8396 10.3341C20.8406 10.331 20.8439 10.3206 20.8388 10.2937Z" fill="black"/>
<path d="M9.62681 2.79877C10.0803 2.68215 10.5 3.04141 10.5 3.50962C10.5 3.87551 10.2384 4.1859 9.88544 4.28238C6.49326 5.20967 4 8.31364 4 11.9999C4 16.4182 7.58172 19.9999 12 19.9999C15.6863 19.9999 18.7903 17.5067 19.7176 14.1145C19.814 13.7616 20.1244 13.4999 20.4903 13.4999C20.9585 13.4999 21.3178 13.9197 21.2012 14.3731C20.1472 18.4715 16.4273 21.4999 12 21.4999C6.7533 21.4999 2.5 17.2466 2.5 11.9999C2.5 7.57267 5.52848 3.85274 9.62681 2.79877Z" fill="black"/>
</svg>
