<svg width="24" height="24" viewBox="0 0 24 24" fill="none" xmlns="http://www.w3.org/2000/svg">
<path d="M20.7678 19.9891L17.427 16.6752C18.7238 15.0583 19.3518 13.0059 19.1819 10.9402C19.012 8.87442 18.057 6.95226 16.5134 5.56896C14.9698 4.18565 12.9549 3.44634 10.8829 3.50304C8.81093 3.55973 6.83943 4.40813 5.37378 5.87378C3.90813 7.33943 3.05973 9.31093 3.00304 11.3829C2.94634 13.4549 3.68565 15.4698 5.06896 17.0134C6.45226 18.557 8.37442 19.512 10.4402 19.6819C12.5059 19.8518 14.5583 19.2238 16.1752 17.927L19.4891 21.2408C19.5728 21.3252 19.6724 21.3922 19.7822 21.4379C19.8919 21.4837 20.0096 21.5072 20.1285 21.5072C20.2474 21.5072 20.3651 21.4837 20.4748 21.4379C20.5845 21.3922 20.6841 21.3252 20.7678 21.2408C20.9301 21.0729 21.0209 20.8485 21.0209 20.615C21.0209 20.3814 20.9301 20.157 20.7678 19.9891ZM11.1234 17.927C9.87667 17.927 8.65794 17.5573 7.62133 16.8646C6.58471 16.172 5.77677 15.1875 5.29967 14.0357C4.82257 12.8838 4.69773 11.6164 4.94096 10.3936C5.18418 9.17086 5.78454 8.04768 6.66611 7.16611C7.54768 6.28454 8.67086 5.68418 9.89363 5.44096C11.1164 5.19773 12.3838 5.32257 13.5357 5.79967C14.6875 6.27677 15.672 7.08471 16.3646 8.12133C17.0573 9.15794 17.427 10.3767 17.427 11.6234C17.427 13.2952 16.7628 14.8985 15.5807 16.0807C14.3985 17.2628 12.7952 17.927 11.1234 17.927Z" fill="black"/>
</svg>
