<svg width="24" height="24" viewBox="0 0 24 24" fill="none" xmlns="http://www.w3.org/2000/svg">
<path d="M11.9999 16.5C11.5857 16.5 11.2499 16.1642 11.2499 15.75V13.75H9.24994C8.83573 13.75 8.49994 13.4142 8.49994 13C8.49994 12.5858 8.83573 12.25 9.24994 12.25H11.2499V10.25C11.2499 9.83579 11.5857 9.5 11.9999 9.5C12.4142 9.5 12.7499 9.83579 12.7499 10.25V12.25H14.7499C15.1642 12.25 15.4999 12.5858 15.4999 13C15.4999 13.4142 15.1642 13.75 14.7499 13.75H12.7499V15.75C12.7499 16.1642 12.4142 16.5 11.9999 16.5Z" fill="black"/>
<path fill-rule="evenodd" clip-rule="evenodd" d="M19.4142 6.41422C19.7892 6.78929 19.9999 7.298 19.9999 7.82843V20C19.9999 21.1046 19.1045 22 17.9999 22H5.99994C4.89537 22 3.99994 21.1046 3.99994 20V4C3.99994 2.89543 4.89537 2 5.99994 2H14.1715C14.7019 2 15.2107 2.21071 15.5857 2.58579L19.4142 6.41422ZM18.4999 7.82843V20C18.4999 20.2762 18.2761 20.5 17.9999 20.5H5.99994C5.7238 20.5 5.49994 20.2762 5.49994 20V4C5.49994 3.72386 5.7238 3.5 5.99994 3.5H14.1715C14.3041 3.5 14.4313 3.55268 14.5251 3.64645L18.3535 7.47488C18.4473 7.56865 18.4999 7.69583 18.4999 7.82843Z" fill="black"/>
</svg>
