<svg width="51" height="47" viewBox="0 0 51 47" fill="none" xmlns="http://www.w3.org/2000/svg">
<path d="M15.1679 36.3509C14.781 36.34 14.4696 36.3179 14.0728 36.2401C13.676 36.1622 13.3646 36.1401 13.0431 36.051C12.3249 35.8841 11.6721 35.6389 11.0093 35.3267C9.69367 34.7694 8.56423 33.9104 7.63095 32.8167C6.70765 31.7901 6.05588 30.5175 5.79093 29.2558C5.61578 28.5971 5.60134 27.9829 5.57692 27.3017C5.6024 26.9555 5.63785 26.6763 5.66333 26.3301C5.6888 25.9839 5.79962 25.6935 5.8251 25.3473L6.04016 26.274C6.09005 26.609 6.20533 26.8657 6.33059 27.1895C6.49576 27.7812 6.7363 28.3617 6.96686 28.8752C7.43796 29.9692 8.04981 30.9738 8.87779 31.8777C9.70577 32.7816 10.5991 33.6073 11.7086 34.3323C12.2207 34.6669 12.8081 34.9903 13.3956 35.3137C13.6516 35.481 13.983 35.6371 14.3144 35.7932L15.1679 36.3509ZM15.301 38.7964C15.0948 38.9641 14.8033 39.076 14.5118 39.1879C14.2204 39.2998 14.0042 39.4004 13.7028 39.4453C13.1852 39.5909 12.5922 39.7477 11.9793 39.7705C10.8388 39.8719 9.59305 39.7835 8.54343 39.4605C7.41845 39.1487 6.40429 38.5464 5.67163 37.7653C5.3103 37.4082 4.93898 36.9841 4.64303 36.5488C4.53773 36.3591 4.42245 36.1023 4.30717 35.8456C4.27724 35.6446 4.17194 35.4548 4.13202 35.1869C4.38806 35.3542 4.56873 35.5327 4.73942 35.6442C4.99545 35.8115 5.17612 35.9901 5.34681 36.1016C5.77354 36.3805 6.12489 36.6705 6.54164 36.8824C7.38511 37.3731 8.21861 37.7968 9.18288 38.0641C10.0718 38.3426 11.1014 38.5316 12.0458 38.6649C12.5179 38.7315 13.0555 38.72 13.603 38.7754C13.8391 38.8087 14.1405 38.7638 14.3766 38.7971C14.7634 38.808 14.9895 38.7743 15.301 38.7964ZM27.4844 3.69987C27.8712 3.71074 28.1927 3.79983 28.5894 3.87769C28.9862 3.95556 29.3077 4.04465 29.6291 4.13374C30.3573 4.36769 31.0101 4.61286 31.6729 4.92503C32.9985 5.54937 34.1379 6.47536 34.9959 7.58025C35.8538 8.68514 36.4302 9.96891 36.6198 11.2418C36.7195 11.9118 36.734 12.526 36.683 13.2184C36.6575 13.5646 36.6221 13.8438 36.5212 14.2012C36.4204 14.5586 36.385 14.8378 36.2741 15.1283L36.0591 14.2015C36.0092 13.8666 35.9693 13.5986 35.844 13.2748L35.3485 11.4996C34.9528 10.3944 34.3309 9.32283 33.5683 8.34071C32.8058 7.35859 31.9124 6.53291 30.8783 5.79668C30.3562 5.39506 29.7688 5.07167 29.2467 4.67005C28.9907 4.50274 28.6593 4.34666 28.3279 4.19057L27.4844 3.69987ZM34.0014 2.4553C34.3129 2.47739 34.5489 2.51071 34.795 2.61103C35.0311 2.64435 35.3525 2.73344 35.5986 2.83375C36.0907 3.03438 36.5828 3.23501 37.0849 3.50264C38.0137 4.04911 38.8117 4.75202 39.3283 5.63383C39.9202 6.50441 40.2206 7.48689 40.2195 8.51427C40.214 8.99446 40.1331 9.48587 40.0522 9.97729C40.0068 10.1895 39.896 10.4799 39.8505 10.6921C39.7297 10.9156 39.6843 11.1278 39.4881 11.3624L39.3884 10.6925L39.2886 10.0225C39.2187 9.55358 39.0835 9.16283 39.0236 8.76086C38.7432 7.91238 38.4727 7.13089 37.9861 6.45007C37.4895 5.70225 36.9376 5.09965 36.3002 4.44128C35.9489 4.1512 35.5875 3.79413 35.2362 3.50406C35.0555 3.32552 34.8848 3.21398 34.6288 3.04667C34.4281 2.73415 34.1721 2.56684 34.0014 2.4553Z" fill="#42ADE2"/>
<path d="M7.52695 16.6021C6.10941 17.4295 5.82133 19.116 6.69919 20.3549L18.8197 36.5602L23.7661 33.5636L11.6356 17.2913C10.7577 16.0524 8.9345 15.7076 7.52695 16.6021ZM34.5588 26.8885L39.7867 23.713L25.9404 5.23091C24.9872 4.00326 23.0886 3.66971 21.6057 4.57539C20.1981 5.46985 19.7593 7.17875 20.7225 8.4734L34.5588 26.8885Z" fill="#FFDD67"/>
<path d="M21.6712 4.49717C21.5304 4.58662 21.3897 4.67606 21.2589 4.8325C22.641 4.28425 24.2381 4.6627 25.096 5.76759L38.9423 24.2497L39.8622 23.7018L26.0159 5.21969C25.0527 3.92504 23.1541 3.59149 21.6712 4.49717Z" fill="#EBA352"/>
<path d="M23.7561 33.4965L29.1902 30.1533L15.0579 11.3029C14.0947 10.0083 12.0353 9.63019 10.5524 10.5359C9.0695 11.4415 8.65064 13.2844 9.61385 14.5791L23.7561 33.4965Z" fill="#FFDD67"/>
<path d="M10.5623 10.6029C10.4216 10.6924 10.2808 10.7818 10.15 10.9382C11.5321 10.39 13.28 10.746 14.1479 11.9179L22.9121 23.6925L24.6999 24.3164L15.0678 11.37C14.0946 10.0083 12.1206 9.686 10.5623 10.6029Z" fill="#EBA352"/>
<path d="M28.0462 28.6803L33.4803 25.3371L19.348 6.4867C18.3848 5.19205 16.3255 4.81396 14.8525 5.78663C13.3696 6.69231 12.9507 8.53521 13.9139 9.82986L28.0462 28.6803Z" fill="#FFDD67"/>
<path d="M14.8425 5.71958C14.7017 5.80903 14.571 5.96547 14.4302 6.05491C15.8123 5.50666 17.5601 5.86266 18.428 7.03454L28.3461 20.3493L30.1339 20.9733L19.3479 6.48664C18.3747 5.125 16.3254 4.8139 14.8425 5.71958ZM7.52683 16.602C7.38607 16.6915 7.24532 16.7809 7.11454 16.9373C8.42125 16.4003 9.94303 16.79 10.7256 17.9061L17.9447 27.5824L19.7325 28.2064L11.6455 17.3582C10.7576 16.0523 8.93438 15.7076 7.52683 16.602Z" fill="#EBA352"/>
<path d="M45.5139 8.88982C43.2694 7.786 40.1828 9.82079 39.2432 14.8914C38.6116 18.4095 38.6105 19.4369 36.3484 20.801L34.6226 18.5243C34.6226 18.5243 14.5855 30.8906 15.6341 32.241C15.6341 32.241 19.2542 38.9608 24.1144 41.5925C31.3344 45.5848 45.6948 38.0359 44.4673 25.1388C43.7365 17.6462 47.929 10.1052 45.5139 8.88982Z" fill="#FFDD67"/>
<path d="M45.5141 8.88973C45.0973 8.67787 44.6252 8.61123 44.163 8.61159C44.2483 8.66736 44.3991 8.64491 44.4844 8.70068C46.9749 9.90481 45.1674 13.8035 44.3651 17.2101C43.6892 19.9131 43.1739 22.6606 43.7038 25.184C45.9632 36.2154 34.1652 43.3826 26.3292 42.4953C34.1242 44.142 47.0627 36.8734 44.7335 25.373C44.2036 22.8497 44.6634 20.2474 45.3948 17.3992C46.1217 14.0038 47.9292 10.1051 45.5141 8.88973Z" fill="#EBA352"/>
<path d="M36.987 20.432C32.3841 21.5969 26.4137 28.5809 32.2051 34.3611C27.685 28.3231 32.8297 23.0371 36.2932 20.9462C36.6301 20.6221 36.987 20.432 36.987 20.432Z" fill="#EBA352"/>
</svg>
